HIERARCHY
ROOT newVegas:Hips
{
	OFFSET 0.000000 96.479958 0.000000
	CHANNELS 6 Xposition Yposition Zposition Xrotation Yrotation Zrotation
	JOINT newVegas:Pelvis
	{
		OFFSET 0.000000 0.000000 0.000000
		CHANNELS 3 Xrotation Yrotation Zrotation
		JOINT newVegas:LeftUpLeg
		{
			OFFSET 18.735201 -5.666702 -4.541200
			CHANNELS 3 Xrotation Yrotation Zrotation
			JOINT newVegas:LeftLeg
			{
				OFFSET -0.021200 -31.938179 0.493100
				CHANNELS 3 Xrotation Yrotation Zrotation
				JOINT newVegas:LeftFoot
				{
					OFFSET 0.021200 -31.938179 -4.336299
					CHANNELS 3 Xrotation Yrotation Zrotation
					JOINT newVegas:LeftToeBase
					{
						OFFSET 0.943001 -26.722000 15.023500
						CHANNELS 3 Xrotation Yrotation Zrotation
						End Site
						{
							OFFSET 0.000000 30.670183 0.000000
						}
					}
				}
				JOINT newVegas:Left_PantLeg
				{
					OFFSET 0.663870 -9.044666 -1.108900
					CHANNELS 3 Xrotation Yrotation Zrotation
					End Site
					{
						OFFSET 1.415995 20.635357 0.000000
					}
				}
			}
		}
		JOINT newVegas:RightUpLeg
		{
			OFFSET -18.735201 -5.666702 -4.541200
			CHANNELS 3 Xrotation Yrotation Zrotation
			JOINT newVegas:RightLeg
			{
				OFFSET 0.018946 -31.938133 0.493100
				CHANNELS 3 Xrotation Yrotation Zrotation
				JOINT newVegas:RightFoot
				{
					OFFSET -0.018946 -31.938126 -4.336299
					CHANNELS 3 Xrotation Yrotation Zrotation
					JOINT newVegas:RightToeBase
					{
						OFFSET -0.943001 -26.722004 15.023500
						CHANNELS 3 Xrotation Yrotation Zrotation
						End Site
						{
							OFFSET 0.000000 30.670187 0.000000
						}
					}
				}
				JOINT newVegas:Right_PantLeg
				{
					OFFSET -0.661674 -9.044716 -1.108900
					CHANNELS 3 Xrotation Yrotation Zrotation
					End Site
					{
						OFFSET -1.415958 20.635269 0.000000
					}
				}
			}
		}
	}
	JOINT newVegas:Spine
	{
		OFFSET 0.000000 10.199997 -0.299500
		CHANNELS 3 Xrotation Yrotation Zrotation
		JOINT newVegas:Spine1
		{
			OFFSET 0.000000 11.900002 -1.516600
			CHANNELS 3 Xrotation Yrotation Zrotation
			JOINT newVegas:Spine2
			{
				OFFSET 0.000000 13.600006 -2.842500
				CHANNELS 3 Xrotation Yrotation Zrotation
				JOINT newVegas:Neck
				{
					OFFSET 0.000000 9.624100 -2.890100
					CHANNELS 3 Xrotation Yrotation Zrotation
					JOINT newVegas:Head
					{
						OFFSET 0.000000 14.068802 -1.351900
						CHANNELS 3 Xrotation Yrotation Zrotation
						JOINT newVegas:Hair_Back
						{
							OFFSET 0.000000 3.231903 -17.524799
							CHANNELS 3 Xrotation Yrotation Zrotation
							End Site
							{
								OFFSET 0.000000 19.849884 0.000000
							}
						}
						JOINT newVegas:Hair_Front
						{
							OFFSET 0.000000 31.260406 4.573800
							CHANNELS 3 Xrotation Yrotation Zrotation
							JOINT newVegas:Hair_Front1
							{
								OFFSET 0.000000 2.284103 11.993300
								CHANNELS 3 Xrotation Yrotation Zrotation
								JOINT newVegas:Hair_Front2
								{
									OFFSET 0.000000 2.284103 11.993300
									CHANNELS 3 Xrotation Yrotation Zrotation
									End Site
									{
										OFFSET 0.000000 12.208862 0.000000
									}
								}
							}
						}
						JOINT newVegas:Jowel
						{
							OFFSET 0.000000 -7.458206 6.864100
							CHANNELS 3 Xrotation Yrotation Zrotation
							End Site
							{
								OFFSET 0.000000 19.849884 0.000000
							}
						}
					}
				}
				JOINT newVegas:LeftShoulder
				{
					OFFSET 15.263000 10.923401 -0.547700
					CHANNELS 3 Xrotation Yrotation Zrotation
					JOINT newVegas:LeftArm
					{
						OFFSET 25.438599 -2.830597 -13.032500
						CHANNELS 3 Xrotation Yrotation Zrotation
						JOINT newVegas:LeftForeArm
						{
							OFFSET 29.960503 0.000000 0.000000
							CHANNELS 3 Xrotation Yrotation Zrotation
							JOINT newVegas:LeftHand
							{
								OFFSET 27.849251 0.000000 0.000000
								CHANNELS 3 Xrotation Yrotation Zrotation
								JOINT newVegas:LeftHandThumb1
								{
									OFFSET 4.487587 -3.305161 6.305391
									CHANNELS 3 Xrotation Yrotation Zrotation
									JOINT newVegas:LeftHandThumb2
									{
										OFFSET 5.480453 -3.164139 3.164143
										CHANNELS 3 Xrotation Yrotation Zrotation
										JOINT newVegas:LeftHandThumb3
										{
											OFFSET 5.159721 -2.978973 2.978967
											CHANNELS 3 Xrotation Yrotation Zrotation
											End Site
											{
												OFFSET 2.494507 5.926697 1.738678
											}
										}
									}
								}
								JOINT newVegas:LeftHandIndex1
								{
									OFFSET 18.578728 -0.527832 5.208049
									CHANNELS 3 Xrotation Yrotation Zrotation
									JOINT newVegas:LeftHandIndex2
									{
										OFFSET 3.192009 0.000000 0.000000
										CHANNELS 3 Xrotation Yrotation Zrotation
										JOINT newVegas:LeftHandIndex3
										{
											OFFSET 3.835129 0.000000 0.000000
											CHANNELS 3 Xrotation Yrotation Zrotation
											End Site
											{
												OFFSET -0.034599 3.816971 0.371180
											}
										}
									}
								}
								JOINT newVegas:LeftHandMiddle1
								{
									OFFSET 18.476105 0.000000 0.000000
									CHANNELS 3 Xrotation Yrotation Zrotation
									JOINT newVegas:LeftHandMiddle2
									{
										OFFSET 3.324875 0.000000 0.000000
										CHANNELS 3 Xrotation Yrotation Zrotation
										JOINT newVegas:LeftHandMiddle3
										{
											OFFSET 4.596550 0.000000 0.000000
											CHANNELS 3 Xrotation Yrotation Zrotation
											End Site
											{
												OFFSET 0.057701 4.578827 0.399218
											}
										}
									}
								}
								JOINT newVegas:LeftHandRing1
								{
									OFFSET 17.732719 0.121887 -4.201567
									CHANNELS 3 Xrotation Yrotation Zrotation
									JOINT newVegas:LeftHandRing2
									{
										OFFSET 2.733170 0.000000 0.000000
										CHANNELS 3 Xrotation Yrotation Zrotation
										JOINT newVegas:LeftHandRing3
										{
											OFFSET 3.178268 0.000000 0.000000
											CHANNELS 3 Xrotation Yrotation Zrotation
											End Site
											{
												OFFSET 0.119102 3.170624 0.185394
											}
										}
									}
								}
								JOINT newVegas:LeftHandPinky1
								{
									OFFSET 15.989624 -0.606689 -7.535461
									CHANNELS 3 Xrotation Yrotation Zrotation
									JOINT newVegas:LeftHandPinky2
									{
										OFFSET 2.538986 0.000000 0.000000
										CHANNELS 3 Xrotation Yrotation Zrotation
										JOINT newVegas:LeftHandPinky3
										{
											OFFSET 2.593102 0.000000 0.000000
											CHANNELS 3 Xrotation Yrotation Zrotation
											End Site
											{
												OFFSET -0.150902 2.584198 0.152708
											}
										}
									}
								}
							}
							JOINT newVegas:Left_Sleeve
							{
								OFFSET 0.267448 -0.649796 0.577675
								CHANNELS 3 Xrotation Yrotation Zrotation
								End Site
								{
									OFFSET 0.000000 15.991241 0.000000
								}
							}
							JOINT newVegas:Left_CapeC
							{
								OFFSET 15.715958 -8.608795 -6.935905
								CHANNELS 3 Xrotation Yrotation Zrotation
								JOINT newVegas:Left_CapeC1
								{
									OFFSET 0.000000 -8.688499 0.000000
									CHANNELS 3 Xrotation Yrotation Zrotation
									End Site
									{
										OFFSET 0.000000 8.688499 0.000000
									}
								}
							}
						}
						JOINT newVegas:Left_CapeB
						{
							OFFSET 26.118385 -8.608795 -7.079235
							CHANNELS 3 Xrotation Yrotation Zrotation
							JOINT newVegas:Left_CapeB1
							{
								OFFSET 0.000000 -8.688499 0.000000
								CHANNELS 3 Xrotation Yrotation Zrotation
								End Site
								{
									OFFSET 0.000000 8.688499 0.000000
								}
							}
						}
						JOINT newVegas:Left_CapeA
						{
							OFFSET 5.115639 -8.608795 -10.395809
							CHANNELS 3 Xrotation Yrotation Zrotation
							JOINT newVegas:Left_CapeA1
							{
								OFFSET 0.000000 -8.688499 0.000000
								CHANNELS 3 Xrotation Yrotation Zrotation
								End Site
								{
									OFFSET 0.000000 8.688499 0.000000
								}
							}
						}
					}
				}
				JOINT newVegas:RightShoulder
				{
					OFFSET -15.263000 10.923401 -0.547700
					CHANNELS 3 Xrotation Yrotation Zrotation
					JOINT newVegas:RightArm
					{
						OFFSET -25.438599 -2.830597 -13.032500
						CHANNELS 3 Xrotation Yrotation Zrotation
						JOINT newVegas:RightForeArm
						{
							OFFSET -29.960503 0.000000 0.000000
							CHANNELS 3 Xrotation Yrotation Zrotation
							JOINT newVegas:RightHand
							{
								OFFSET -27.849251 0.000000 0.000000
								CHANNELS 3 Xrotation Yrotation Zrotation
								JOINT newVegas:RightHandThumb1
								{
									OFFSET -4.487587 -3.305161 6.305391
									CHANNELS 3 Xrotation Yrotation Zrotation
									JOINT newVegas:RightHandThumb2
									{
										OFFSET -5.480453 -3.164139 3.164143
										CHANNELS 3 Xrotation Yrotation Zrotation
										JOINT newVegas:RightHandThumb3
										{
											OFFSET -5.159721 -2.978973 2.978967
											CHANNELS 3 Xrotation Yrotation Zrotation
											End Site
											{
												OFFSET -2.494507 5.926697 1.738678
											}
										}
									}
								}
								JOINT newVegas:RightHandIndex1
								{
									OFFSET -18.578728 -0.527832 5.208049
									CHANNELS 3 Xrotation Yrotation Zrotation
									JOINT newVegas:RightHandIndex2
									{
										OFFSET -3.192009 0.000000 0.000000
										CHANNELS 3 Xrotation Yrotation Zrotation
										JOINT newVegas:RightHandIndex3
										{
											OFFSET -3.835129 0.000000 0.000000
											CHANNELS 3 Xrotation Yrotation Zrotation
											End Site
											{
												OFFSET 0.034599 3.816971 0.371180
											}
										}
									}
								}
								JOINT newVegas:RightHandMiddle1
								{
									OFFSET -18.476105 0.000000 0.000000
									CHANNELS 3 Xrotation Yrotation Zrotation
									JOINT newVegas:RightHandMiddle2
									{
										OFFSET -3.324875 0.000000 0.000000
										CHANNELS 3 Xrotation Yrotation Zrotation
										JOINT newVegas:RightHandMiddle3
										{
											OFFSET -4.596550 0.000000 0.000000
											CHANNELS 3 Xrotation Yrotation Zrotation
											End Site
											{
												OFFSET -0.057701 4.578827 0.399218
											}
										}
									}
								}
								JOINT newVegas:RightHandRing1
								{
									OFFSET -17.732719 0.121887 -4.201567
									CHANNELS 3 Xrotation Yrotation Zrotation
									JOINT newVegas:RightHandRing2
									{
										OFFSET -2.733170 0.000000 0.000000
										CHANNELS 3 Xrotation Yrotation Zrotation
										JOINT newVegas:RightHandRing3
										{
											OFFSET -3.178268 0.000000 0.000000
											CHANNELS 3 Xrotation Yrotation Zrotation
											End Site
											{
												OFFSET -0.119102 3.170624 0.185394
											}
										}
									}
								}
								JOINT newVegas:RightHandPinky1
								{
									OFFSET -15.989624 -0.606689 -7.535461
									CHANNELS 3 Xrotation Yrotation Zrotation
									JOINT newVegas:RightHandPinky2
									{
										OFFSET -2.538986 0.000000 0.000000
										CHANNELS 3 Xrotation Yrotation Zrotation
										JOINT newVegas:RightHandPinky3
										{
											OFFSET -2.593102 0.000000 0.000000
											CHANNELS 3 Xrotation Yrotation Zrotation
											End Site
											{
												OFFSET 0.150902 2.584198 0.152708
											}
										}
									}
								}
							}
							JOINT newVegas:Right_CapeC
							{
								OFFSET -15.715958 -8.608795 -6.935905
								CHANNELS 3 Xrotation Yrotation Zrotation
								JOINT newVegas:Right_CapeC1
								{
									OFFSET 0.000000 -8.688499 0.000000
									CHANNELS 3 Xrotation Yrotation Zrotation
									End Site
									{
										OFFSET 0.000000 8.688499 0.000000
									}
								}
							}
							JOINT newVegas:Right_Sleeve
							{
								OFFSET -0.267448 -0.649994 0.577675
								CHANNELS 3 Xrotation Yrotation Zrotation
								End Site
								{
									OFFSET 0.000000 15.991302 0.000000
								}
							}
						}
						JOINT newVegas:Right_CapeA
						{
							OFFSET -5.115540 -8.608795 -10.395824
							CHANNELS 3 Xrotation Yrotation Zrotation
							JOINT newVegas:Right_CapeA1
							{
								OFFSET 0.000000 -8.688499 0.000000
								CHANNELS 3 Xrotation Yrotation Zrotation
								End Site
								{
									OFFSET 0.000000 8.688499 0.000000
								}
							}
						}
						JOINT newVegas:Right_CapeB
						{
							OFFSET -26.118187 -8.608795 -7.079266
							CHANNELS 3 Xrotation Yrotation Zrotation
							JOINT newVegas:Right_CapeB1
							{
								OFFSET 0.000000 -8.688499 0.000000
								CHANNELS 3 Xrotation Yrotation Zrotation
								End Site
								{
									OFFSET 0.000000 8.688499 0.000000
								}
							}
						}
					}
				}
				JOINT newVegas:Left_Collar
				{
					OFFSET 18.625099 8.655502 8.828100
					CHANNELS 3 Xrotation Yrotation Zrotation
					JOINT newVegas:Left_Collar1
					{
						OFFSET 14.783401 10.540405 -1.259500
						CHANNELS 3 Xrotation Yrotation Zrotation
						End Site
						{
							OFFSET 0.000000 18.199875 0.000000
						}
					}
				}
				JOINT newVegas:Collar_Back
				{
					OFFSET 0.000000 15.630707 -20.132601
					CHANNELS 3 Xrotation Yrotation Zrotation
					End Site
					{
						OFFSET 0.000000 22.523010 0.000000
					}
				}
				JOINT newVegas:Left_Peck
				{
					OFFSET 17.239599 -5.132599 25.482599
					CHANNELS 3 Xrotation Yrotation Zrotation
					End Site
					{
						OFFSET 0.000000 22.523010 0.000000
					}
				}
				JOINT newVegas:Right_Peck
				{
					OFFSET -17.239599 -5.132202 25.482599
					CHANNELS 3 Xrotation Yrotation Zrotation
					End Site
					{
						OFFSET 0.000000 22.523010 0.000000
					}
				}
				JOINT newVegas:Right_Collar
				{
					OFFSET -18.625099 8.655792 8.828100
					CHANNELS 3 Xrotation Yrotation Zrotation
					JOINT newVegas:Right_Collar1
					{
						OFFSET -14.783401 10.539993 -1.259500
						CHANNELS 3 Xrotation Yrotation Zrotation
						End Site
						{
							OFFSET 0.000000 18.199631 0.000000
						}
					}
				}
			}
		}
		JOINT newVegas:Belly
		{
			OFFSET 0.000000 -6.540398 9.014299
			CHANNELS 3 Xrotation Yrotation Zrotation
			End Site
			{
				OFFSET 0.000000 11.566666 0.000000
			}
		}
	}
	JOINT newVegas:ElvisFacialAnim_Joint
	{
		OFFSET 1.000000 -95.330101 -8.825800
		CHANNELS 3 Xrotation Yrotation Zrotation
		End Site
		{
			OFFSET 0.000000 35.315800 0.000000
		}
	}
}
MOTION
Frames: 4
Frame Time: 0.033333
3.189714 43.175453 5.593420 -15.877743 23.484895 14.694278 -0.000000 -0.000001 0.000000 -112.977476 13.253157 23.754423 131.197334 -0.306365 -2.658292 -7.024596 0.810632 19.804262 -0.000000 0.000002 -0.000000 0.000001 0.000000 0.000003 -103.242168 47.298438 8.652981 159.894865 20.678440 4.391631 -1.136995 3.457309 25.569310 -0.000000 0.000001 -0.000001 0.000001 0.000001 -0.000002 9.137351 -2.956450 -1.394810 18.178748 -6.289031 -3.043153 18.178752 -6.289025 -3.043154 -1.876592 1.007266 -0.746757 -1.876607 1.007265 -0.746756 0.000002 0.000001 0.000000 -1.876587 1.007264 -0.746758 -1.876582 1.007262 -0.746762 0.000001 0.000001 -0.000001 0.000002 0.000001 0.000000 -3.457554 -13.935160 -5.823540 -15.476618 -16.705958 -56.985436 8.025369 -92.948042 8.026444 64.820134 -6.809298 -37.003677 -4.482767 9.661408 19.814843 2.275274 6.589320 2.293077 0.000000 0.000002 -0.000011 1.059934 7.100109 -10.765189 0.136580 0.898901 -25.992616 0.000001 -0.000001 -0.000001 1.335815 7.421540 -25.669968 -0.562014 -2.241629 -23.090914 -0.000001 0.000001 0.000000 -0.026981 8.125052 -31.378893 -0.772805 -3.677462 -27.573564 -0.000000 -0.000002 0.000001 -1.483714 7.962196 -26.751723 -1.837342 -7.884734 -38.553693 0.000001 -0.000002 -0.000001 -0.000000 0.000001 0.000000 -0.000000 0.000001 0.000000 -0.000001 0.000001 0.000000 -0.000000 -0.000001 0.000001 0.000000 -0.000001 -0.000001 -0.000000 -0.000001 0.000001 0.000000 -0.000001 0.000001 -3.442807 13.907521 5.670586 -2.865549 35.013397 58.342581 0.254606 53.091016 0.186784 35.169358 13.826776 -26.968010 3.837644 -8.280739 7.738897 2.089635 -6.080029 -2.749580 -0.000003 -0.000005 0.000001 1.699880 -7.103860 38.190511 0.131167 -1.149281 17.690144 -0.000002 -0.000001 -0.000000 0.190763 -7.722965 28.946321 -0.221736 0.910533 8.225116 0.000001 -0.000000 0.000000 1.661905 -8.215507 22.957680 -0.546286 3.375588 18.806118 0.000002 -0.000001 -0.000001 2.277878 -9.121680 11.268222 -1.078234 7.469326 21.982506 -0.000003 -0.000000 0.000001 -0.000001 0.000003 -0.000000 -0.000001 -0.000001 -0.000002 -0.000001 0.000003 0.000002 0.000000 0.000001 0.000001 0.000000 0.000001 0.000001 0.000000 0.000001 0.000001 0.000000 0.000001 0.000001 0.000004 0.000000 -0.000000 0.000004 0.000000 -0.000000 0.000004 0.000000 -0.000000 0.000004 0.000000 -0.000000 0.000004 0.000000 -0.000000 0.000004 0.000000 -0.000000 0.000004 0.000000 -0.000000 -0.000000 -0.000003 0.000000 -0.000000 -0.000001 0.000000 
3.182262 43.176109 5.586296 -15.905699 23.451074 14.711876 -0.000001 0.000001 -0.000000 -112.934958 13.248108 23.757112 131.212155 -0.312278 -2.658408 -7.066384 0.838931 19.787893 -0.000000 -0.000002 0.000000 0.000000 0.000003 0.000001 -103.418367 47.278125 8.735204 159.895794 20.633252 4.384949 -0.985027 3.521218 25.540780 -0.000001 -0.000000 0.000000 0.000001 0.000001 -0.000006 9.136131 -2.957288 -1.397179 18.176523 -6.290004 -3.043390 18.176522 -6.290004 -3.043396 -1.876637 1.007448 -0.741142 -1.876637 1.007454 -0.741138 0.000001 0.000001 -0.000000 -1.876580 1.007462 -0.741142 -1.876692 1.007433 -0.741139 0.000000 0.000000 -0.000000 0.000001 0.000001 -0.000000 -3.457743 -13.938890 -5.785515 -15.456346 -16.677860 -57.046672 8.050548 -92.931970 8.051319 64.891216 -6.779387 -36.799485 -4.482771 9.661396 19.814859 2.275277 6.589304 2.293077 0.000004 0.000000 -0.000004 1.059943 7.100090 -10.765179 0.136584 0.898906 -25.992602 -0.000001 0.000000 0.000000 1.335818 7.421530 -25.669970 -0.562016 -2.241642 -23.090923 -0.000002 0.000000 0.000000 -0.026992 8.125022 -31.378876 -0.772807 -3.677454 -27.573552 0.000001 -0.000001 0.000002 -1.483718 7.962190 -26.751734 -1.837354 -7.884729 -38.553658 -0.000002 0.000004 -0.000001 0.000000 0.000000 0.000001 0.000000 0.000000 0.000001 -0.000001 0.000000 0.000002 0.000001 0.000000 -0.000000 0.000001 0.000000 -0.000000 0.000001 0.000000 -0.000000 0.000001 -0.000001 -0.000000 -3.447898 13.911106 5.714535 -2.788674 35.009979 58.259103 0.254061 53.133442 0.186744 35.140422 13.814215 -26.989216 3.837204 -8.280192 7.738749 2.090177 -6.081820 -2.749415 0.000005 -0.000002 0.000003 1.700037 -7.103996 38.190726 0.131185 -1.149297 17.690320 -0.000002 -0.000001 0.000000 0.190842 -7.722961 28.946782 -0.221736 0.910536 8.225135 -0.000003 0.000001 -0.000002 1.662083 -8.215831 22.958095 -0.546271 3.375579 18.806135 -0.000001 -0.000003 -0.000001 2.277859 -9.122033 11.268551 -1.078211 7.469302 21.982441 0.000001 0.000002 -0.000001 0.000000 0.000001 0.000002 0.000001 0.000001 0.000001 0.000000 0.000001 0.000002 0.000001 0.000002 -0.000000 0.000001 0.000003 -0.000001 0.000001 0.000002 -0.000000 0.000001 0.000003 0.000000 0.000001 0.000001 -0.000001 0.000001 0.000001 -0.000001 0.000001 0.000001 -0.000001 0.000001 0.000001 -0.000001 0.000001 0.000001 -0.000001 0.000001 0.000001 -0.000001 0.000001 0.000001 -0.000001 -0.000000 0.000001 -0.000000 -0.000001 0.000001 -0.000000 
3.176380 43.176590 5.579618 -15.930677 23.422238 14.727037 -0.000001 0.000002 -0.000000 -112.896108 13.248199 23.757150 131.237427 -0.315240 -2.657814 -7.129349 0.869731 19.775346 -0.000000 0.000004 -0.000000 0.000000 0.000001 0.000001 -103.569963 47.265356 8.812214 159.895753 20.597194 4.379743 -0.856404 3.576029 25.522942 -0.000000 0.000000 -0.000000 0.000004 -0.000000 0.000001 9.134671 -2.959075 -1.397907 18.173943 -6.291473 -3.039828 18.173940 -6.291476 -3.039831 -1.875130 1.008216 -0.732655 -1.875145 1.008214 -0.732652 0.000001 -0.000000 0.000000 -1.875142 1.008204 -0.732653 -1.875152 1.008202 -0.732654 -0.000002 0.000001 -0.000000 0.000001 -0.000000 0.000001 -3.458592 -13.939284 -5.710405 -15.435148 -16.638911 -57.165497 8.040175 -92.926281 8.040761 65.013470 -6.775960 -36.558714 -4.482783 9.661402 19.814865 2.275298 6.589318 2.293058 0.000003 0.000002 -0.000006 1.059949 7.100090 -10.765190 0.136571 0.898912 -25.992626 -0.000001 -0.000000 -0.000000 1.335830 7.421547 -25.669970 -0.562017 -2.241653 -23.090921 0.000001 -0.000000 0.000000 -0.026979 8.125036 -31.378879 -0.772808 -3.677482 -27.573530 -0.000001 -0.000001 0.000001 -1.483715 7.962179 -26.751720 -1.837349 -7.884738 -38.553665 -0.000000 -0.000002 0.000002 -0.000001 -0.000000 -0.000001 -0.000001 -0.000000 -0.000001 -0.000001 -0.000000 -0.000000 0.000001 -0.000001 -0.000001 0.000001 -0.000001 -0.000002 0.000001 -0.000001 -0.000001 0.000001 -0.000001 -0.000001 -3.457628 13.924163 5.792261 -2.675705 34.991909 58.129329 0.252963 53.200917 0.186747 35.118586 13.793635 -27.007152 3.836507 -8.279315 7.738492 2.091105 -6.084894 -2.749159 -0.000000 0.000000 -0.000004 1.700314 -7.104266 38.191109 0.131170 -1.149304 17.690634 0.000001 0.000001 0.000000 0.190981 -7.722964 28.947605 -0.221744 0.910536 8.225213 0.000001 -0.000001 0.000001 1.662411 -8.216365 22.958822 -0.546288 3.375615 18.806216 -0.000002 -0.000001 0.000000 2.277814 -9.122635 11.269135 -1.078207 7.469285 21.982308 0.000002 0.000003 0.000000 -0.000000 -0.000003 -0.000001 0.000001 -0.000004 -0.000002 -0.000000 -0.000004 -0.000001 -0.000001 -0.000002 -0.000001 -0.000001 -0.000002 -0.000001 -0.000001 -0.000002 -0.000001 -0.000001 -0.000002 -0.000001 0.000002 0.000000 0.000000 0.000002 0.000000 0.000000 0.000002 0.000000 0.000000 0.000002 0.000000 0.000000 0.000002 0.000000 0.000000 0.000002 0.000000 0.000000 0.000002 0.000000 0.000000 -0.000000 0.000001 -0.000000 -0.000001 0.000002 -0.000000 
3.172897 43.176140 5.574236 -15.950858 23.401577 14.739704 -0.000000 -0.000001 -0.000000 -112.866629 13.246523 23.756583 131.259010 -0.318179 -2.657449 -7.177910 0.889242 19.764230 0.000000 0.000002 -0.000000 -0.000001 -0.000001 -0.000001 -103.682149 47.270523 8.870792 159.896122 20.576251 4.376791 -0.763950 3.623558 25.513963 -0.000002 0.000001 -0.000000 -0.000003 -0.000001 -0.000001 9.134333 -2.960474 -1.397801 18.173556 -6.292294 -3.035599 18.173550 -6.292299 -3.035594 -1.870179 1.008991 -0.723551 -1.870172 1.008983 -0.723552 0.000001 0.000001 -0.000000 -1.870140 1.008966 -0.723548 -1.870138 1.009010 -0.723560 0.000000 0.000002 0.000000 0.000001 0.000001 0.000000 -3.458474 -13.956439 -5.632570 -15.424799 -16.578867 -57.294250 8.019080 -92.928767 8.019360 65.070830 -6.818210 -36.487253 -4.482768 9.661402 19.814860 2.275282 6.589335 2.293080 0.000002 0.000000 -0.000004 1.059945 7.100081 -10.765178 0.136590 0.898896 -25.992623 0.000001 -0.000001 -0.000001 1.335826 7.421538 -25.669949 -0.562004 -2.241634 -23.090923 -0.000002 -0.000001 0.000000 -0.026989 8.125033 -31.378886 -0.772796 -3.677451 -27.573545 0.000001 -0.000001 -0.000000 -1.483713 7.962194 -26.751710 -1.837356 -7.884734 -38.553686 0.000003 0.000002 -0.000000 -0.000001 0.000000 -0.000000 -0.000001 0.000000 -0.000000 -0.000002 0.000000 -0.000000 0.000002 0.000000 -0.000000 0.000002 0.000000 -0.000000 0.000002 0.000000 -0.000000 0.000002 0.000000 -0.000000 -3.471218 13.948290 5.895384 -2.560862 34.959142 57.995266 0.251882 53.274038 0.186448 35.108381 13.770961 -27.022580 3.837307 -8.280330 7.738749 2.090101 -6.081578 -2.749445 -0.000002 -0.000003 0.000001 1.700026 -7.104003 38.190699 0.131171 -1.149291 17.690277 -0.000002 0.000000 0.000001 0.190856 -7.722962 28.946762 -0.221744 0.910543 8.225205 -0.000000 -0.000001 -0.000000 1.662079 -8.215774 22.958081 -0.546296 3.375600 18.806178 -0.000000 0.000001 -0.000001 2.277873 -9.121977 11.268541 -1.078231 7.469309 21.982458 0.000001 -0.000000 -0.000000 -0.000004 -0.000003 0.000001 -0.000000 -0.000001 0.000002 -0.000004 -0.000003 0.000001 -0.000001 -0.000001 -0.000000 -0.000001 -0.000001 -0.000000 -0.000001 -0.000001 -0.000000 -0.000001 -0.000001 -0.000000 0.000001 -0.000000 0.000001 0.000001 -0.000000 0.000001 0.000001 -0.000000 0.000001 0.000001 -0.000000 0.000001 0.000001 -0.000000 0.000001 0.000001 -0.000000 0.000001 0.000001 -0.000000 0.000001 -0.000000 -0.000003 -0.000000 -0.000000 -0.000001 -0.000000 
